<?xml version="1.0" encoding="UTF-8" standalone="no"?>
<!DOCTYPE svg PUBLIC "-//W3C//DTD SVG 1.1//EN" "http://www.w3.org/Graphics/SVG/1.1/DTD/svg11.dtd">
<svg width="100%" height="100%" viewBox="0 0 1000 1000" version="1.1" xmlns="http://www.w3.org/2000/svg" xmlns:xlink="http://www.w3.org/1999/xlink" xml:space="preserve" xmlns:serif="http://www.serif.com/" style="fill-rule:evenodd;clip-rule:evenodd;stroke-linejoin:round;stroke-miterlimit:2;">
    <g transform="matrix(1.02094,0,0,1.02094,-129.981,-84.0515)">
        <circle cx="618.585" cy="569.939" r="475.955" style="fill:rgb(240,240,240);"/>
    </g>
    <g transform="matrix(0.861085,0,0,-0.861085,-1.94201,1004.77)">
        <path d="M800.242,217.839C798.578,219.386 790.191,229.593 781.613,240.527C760.285,267.695 654.629,401.152 653.426,402.437C652.609,403.308 651.109,402.699 643.953,398.601C633.309,392.499 620.871,386.226 612.578,382.781C596.355,376.042 590.309,373.933 587.078,373.886C583.074,373.824 570.203,377.89 557.75,383.152C548.645,386.995 527.086,398.593 524.406,401.085C523.555,401.878 522.301,402.527 521.621,402.527C520.867,402.527 504.367,381.925 479.715,350.214L439.051,297.902L407.02,265.277C379.871,237.62 373.637,231.663 366.098,226.163C355.586,218.499 351.578,216.038 351.578,217.245C351.578,217.722 353.891,220.878 356.715,224.257C364.043,233.027 377.129,250.117 402.191,283.652C439.758,333.917 499.988,415.667 500.566,417.171C500.758,417.667 498.277,420.284 495.059,422.98C486.441,430.199 464.492,452.749 457.512,461.554C444.941,477.41 435.363,492.058 425.648,510.277C411.305,537.171 400.488,572.124 397.723,600.527C397.461,603.206 396.879,607.257 396.426,609.527C395.238,615.484 395.254,614.656 395.156,673.906L395.066,728.16L367.547,762.781C316.453,827.05 310.297,834.593 309.359,834.07C308.863,833.792 305.586,831.64 302.078,829.281C283.895,817.066 266.746,809.027 258.875,809.027C255.895,809.027 253.328,811.21 253.328,813.753C253.328,816.226 256.453,822.085 260.949,828.054C264.188,832.347 264.684,833.41 263.938,834.429C261.52,837.73 259.98,842.288 260.156,845.632C260.371,849.71 259.961,849.784 255.457,846.523C253.023,844.761 252.133,844.464 251.312,845.144C250.043,846.199 248.781,845.074 264.578,856.98C271.797,862.421 277.938,867.296 278.227,867.816C278.559,868.406 267.566,882.976 248.902,906.691C232.48,927.55 218.832,945.413 218.574,946.386C217.629,949.91 218.098,951.695 220.629,954.226C223.512,957.109 225.82,957.445 229.793,955.558C231.703,954.652 239.922,944.734 262.105,916.558C278.465,895.777 292.266,878.777 292.77,878.777C293.273,878.777 300.488,883.331 308.801,888.902C323.02,898.421 326.078,900.085 326.078,898.277C326.078,897.863 326.121,897.281 326.168,896.984C326.219,896.687 324.637,895.566 322.652,894.499C320.672,893.429 318.934,892.21 318.793,891.788C318.652,891.37 319.93,890.609 321.633,890.097C323.332,889.589 326.172,887.839 327.938,886.21L331.152,883.249L336.941,885.57C350.66,891.062 357.113,890.14 355.75,882.882C354.566,876.566 341.262,860.765 326.285,847.878C322.457,844.589 319.328,841.663 319.328,841.382C319.328,840.495 393.16,745.757 394.078,745.468C394.699,745.273 395.023,747.773 395.203,754.16C395.414,761.699 395.684,763.374 396.883,764.699L398.312,766.277L584.383,766.273C767.609,766.269 770.492,766.245 772.855,764.804C776.332,762.687 777.578,759.73 777.578,753.605C777.578,750.722 777.848,748.199 778.176,747.995C778.863,747.57 816.086,789.062 816.441,790.648C816.57,791.23 814.867,793.839 812.656,796.445C798.5,813.132 792.309,831.074 795.891,845.015C798.574,856.062 803.879,860.984 813.27,864.015C820.066,866.456 833.371,866.226 842.293,863.519C849.41,861.355 858.668,856.976 864.996,852.777C867.176,851.327 869.477,850.257 870.105,850.398C871.07,850.609 934.523,923.71 940.176,931.124C942.426,934.074 947.617,937.277 950.145,937.273C954.191,937.265 959.078,932.351 959.078,928.288C959.078,925.687 957.062,921.699 953.785,917.812C952.078,915.784 950.883,913.796 951.129,913.398C951.379,912.995 953.352,911.667 955.516,910.445C960.105,907.851 965.77,902.054 968.012,897.656C982.414,869.429 954.371,820.097 909.129,794.054C902.703,790.355 901.695,789.503 901.109,787.242C899.305,780.558 894.844,774.062 889.406,771.16C883.816,767.597 876.031,765.937 867.645,766.515C859.234,767.093 851.82,769.234 841.84,773.964L833.727,777.808L830.859,774.48C829.285,772.648 816.668,758.324 802.82,742.652L777.645,714.152L777.613,662.238C777.578,610.398 777.578,610.308 775.684,598.488C772.477,578.48 769.328,565.37 763.84,549.152C753.539,518.714 738.176,490.261 717.871,464.038C705.695,448.312 679.191,422.574 664.332,412.046C661.305,409.906 658.703,407.769 658.547,407.3C658.273,406.476 673.074,387.48 721.305,326.777C749.695,291.038 774.547,260.132 790.355,240.902C805.617,222.335 806.828,220.617 806.828,217.538C806.828,215.394 806.57,215.027 805.051,215.027C804.035,215.027 801.973,216.23 800.242,217.839ZM597.75,380.074C623.812,390.39 640.145,398.835 657.758,411.109C685.355,430.335 711.074,457.003 729.77,485.777C748.871,515.167 763.574,551.136 770.391,585.152C774.719,606.73 774.578,603.503 774.578,683.347C774.578,733.542 774.324,757.781 773.781,759.343C773.316,760.679 772.141,761.98 770.969,762.464C769.527,763.054 743.242,763.234 678.578,763.097L588.203,762.902L588.004,742.742L587.805,722.585L590.332,719.492C593.93,715.093 594.762,713.222 598.57,701.027C600.438,695.042 602.961,687.956 604.18,685.277C606.836,679.433 611.484,666.437 612.227,662.777C613.059,658.663 617.969,647.511 627.996,626.945C650.961,579.847 671.043,549.226 695.734,523.663C713.176,505.609 714.93,501.437 709.281,491.429C706.004,485.624 701.938,481.304 695.691,476.995C688.316,471.906 685.43,471.445 679.551,474.413C675.184,476.617 674.922,476.937 664.539,492.656C651.277,512.726 637.652,536.167 627.711,556.015C621.117,569.179 606.609,600.191 602.68,609.527C596.84,623.402 590.543,637.663 589.848,638.589C589.461,639.105 588.852,639.527 588.488,639.527C587.727,639.527 587.566,378.288 588.328,377.527C589.129,376.726 589.645,376.867 597.75,380.074ZM515.375,522.937C521.773,525.933 526.359,529.167 532.191,534.8C536.926,539.374 545.473,550.495 548.699,556.277C552.734,563.515 554.574,573.73 555.59,594.527C556.004,602.98 556.676,611.757 557.09,614.027C557.965,618.843 560.621,626.589 562.914,631.003C565.805,636.574 574.949,647.281 582.266,653.667C584.242,655.394 584.277,655.577 583.812,661.542C583.555,664.902 583.336,678.199 583.336,691.089C583.328,717.597 583.828,715.87 577.078,712.675C573.754,711.105 572.867,710.214 571.168,706.749C569.023,702.382 569.395,702.644 552.949,693.843C546.824,690.57 540.129,688.324 530.078,686.175C522.094,684.468 486.355,684.605 481.18,686.363C477.246,687.699 466.516,689.23 465.496,688.597C464.594,688.042 464.652,662.699 465.582,649.675C466.531,636.382 468.465,618.363 469.379,614.257C469.766,612.527 470.078,609.753 470.078,608.089C470.078,603.808 473.039,589.386 476.355,577.507C479.008,567.992 482.617,558.777 485.223,554.863C486.43,553.058 488.766,548.89 490.418,545.601C493.301,539.863 499.352,531.296 502.738,528.152C503.625,527.324 505.445,525.214 506.781,523.464C508.113,521.71 509.316,520.277 509.449,520.277C509.586,520.277 512.254,521.472 515.375,522.937ZM540.953,653.21C539.305,653.64 537.746,654.316 537.488,654.71C536.309,656.527 542.812,671.589 546.117,674.695C548.898,677.304 554.496,677.73 557.266,675.546C558.758,674.367 559.328,673.242 559.328,671.484C559.328,669.46 559.754,668.851 561.859,667.847C563.852,666.898 564.504,666.042 564.918,663.835C565.637,660.007 563.891,657.769 557.801,654.73C552.547,652.105 547.09,651.613 540.953,653.21ZM911.078,808.476C919.172,813.851 925.5,819.175 933.277,827.152C942.418,836.527 948.625,845.113 953.48,855.113C958.613,865.687 960.094,871.261 960.152,880.277C960.207,888.808 958.426,893.66 953.645,897.98C950.238,901.058 944.738,903.738 942.555,903.386C940.84,903.109 892.328,846.976 892.328,845.265C892.328,844.636 890.812,842.433 888.953,840.367C887.098,838.304 885.578,836.144 885.578,835.57C885.578,834.999 887.148,832.421 889.066,829.839C892.871,824.718 899.379,811.702 900.223,807.527C901.316,802.113 901.523,802.132 911.078,808.476ZM275.031,842.992C278.562,846.413 283.121,850.605 285.156,852.312L288.859,855.417L286.785,858.406C282.555,864.515 282.648,864.503 275.832,860.027C266.5,853.902 263.113,848.988 264.086,842.992C264.574,839.98 266.457,836.777 267.734,836.777C268.215,836.777 271.496,839.574 275.031,842.992ZM310.637,871.179C314.387,873.597 319.395,876.667 321.766,877.999C327.004,880.937 327.359,881.441 325.59,883.425C322.348,887.07 316.543,887.941 311.328,885.574C307.148,883.675 296.828,875.855 296.828,874.581C296.828,872.972 301.504,866.777 302.719,866.777C303.324,866.777 306.887,868.757 310.637,871.179Z" style="fill-rule:nonzero;"/>
    </g>
</svg>
